<svg width="38" height="38" viewBox="0 0 38 38" fill="none" xmlns="http://www.w3.org/2000/svg">
<path d="M18.9882 1.5096C18.8825 1.51134 18.7784 1.5351 18.6824 1.57936C14.3139 1.65709 9.96958 3.30928 6.63969 6.6396C0.391642 12.8884 -0.133605 22.7079 5.07219 29.5583C5.13211 29.6392 5.20747 29.7073 5.29391 29.7588C5.38036 29.8102 5.47616 29.844 5.57577 29.8582C5.67537 29.8724 5.7768 29.8666 5.87416 29.8413C5.97153 29.8159 6.06289 29.7715 6.14297 29.7106C6.22304 29.6497 6.29022 29.5735 6.34061 29.4864C6.39101 29.3993 6.42362 29.3031 6.43655 29.2034C6.44948 29.1036 6.44247 29.0022 6.41593 28.9052C6.38939 28.8082 6.34386 28.7173 6.28195 28.638C1.52871 22.3831 1.9985 13.4309 7.71438 7.71428C10.64 4.78828 14.4142 3.25843 18.2401 3.07858V6.11858C15.9599 6.2535 13.7077 6.98095 11.743 8.31842C11.6566 8.37286 11.5822 8.44413 11.524 8.52798C11.4658 8.61183 11.4251 8.70654 11.4043 8.80646C11.3835 8.90638 11.383 9.00947 11.4029 9.10957C11.4228 9.20967 11.4627 9.30474 11.5201 9.3891C11.5776 9.47346 11.6514 9.5454 11.7372 9.60061C11.8231 9.65582 11.9192 9.69317 12.0198 9.71045C12.1203 9.72772 12.2234 9.72456 12.3227 9.70115C12.4221 9.67775 12.5157 9.63457 12.598 9.57421C14.5063 8.27514 16.7194 7.62158 18.9363 7.60741C18.9887 7.61187 19.0414 7.61087 19.0936 7.60444C21.9773 7.62566 24.8549 8.73494 27.0602 10.9398C29.0957 12.9749 30.1915 15.5827 30.3659 18.24H27.3215C26.9356 13.9867 23.3518 10.64 19.0001 10.64C14.6483 10.64 11.0646 13.9867 10.6787 18.24H7.63422C7.76777 16.2591 8.41119 14.3061 9.5743 12.5979C9.65481 12.4831 9.70199 12.3483 9.71064 12.2083C9.7193 12.0684 9.68907 11.9288 9.62332 11.805C9.55756 11.6811 9.45884 11.5779 9.33806 11.5067C9.21729 11.4355 9.07917 11.3991 8.93899 11.4015C8.81575 11.4036 8.69488 11.4356 8.58679 11.4948C8.4787 11.5541 8.38663 11.6387 8.31852 11.7414C6.87226 13.8654 6.13845 16.3253 6.09789 18.7937C6.06244 18.9212 6.06091 19.0558 6.09344 19.184C6.13762 22.43 7.39139 25.6614 9.86524 28.1348C12.1927 30.4619 15.1907 31.7031 18.2401 31.8799V34.8843C15.0985 34.7335 11.9914 33.716 9.36203 31.7181C9.28272 31.6562 9.19191 31.6107 9.09487 31.5841C8.99782 31.5576 8.89648 31.5506 8.7967 31.5635C8.69693 31.5764 8.60072 31.6091 8.51364 31.6595C8.42657 31.7099 8.35037 31.777 8.28945 31.8571C8.22854 31.9372 8.18413 32.0285 8.1588 32.1259C8.13346 32.2233 8.12771 32.3247 8.14188 32.4243C8.15604 32.5239 8.18984 32.6197 8.24131 32.7062C8.29278 32.7926 8.3609 32.868 8.44172 32.9279C11.4553 35.2177 15.0443 36.3314 18.6498 36.4043C18.7525 36.4577 18.8661 36.487 18.9819 36.4898C19.0976 36.4926 19.2125 36.469 19.3177 36.4206C23.6863 36.3429 28.0302 34.6907 31.3605 31.3604C37.6093 25.1115 38.1352 15.2928 32.9295 8.44163C32.8614 8.34924 32.7733 8.27346 32.6717 8.21999C32.5702 8.16652 32.4578 8.13674 32.3431 8.13288C32.1986 8.12794 32.0556 8.16434 31.931 8.23782C31.8064 8.31129 31.7054 8.41879 31.6398 8.54769C31.5742 8.67658 31.5467 8.82153 31.5606 8.96549C31.5745 9.10946 31.6292 9.24648 31.7182 9.36046C36.4715 15.6162 36.0024 24.5691 30.2858 30.2857C27.3597 33.2118 23.586 34.7416 19.7601 34.9214V31.8814C22.0402 31.7465 24.2924 31.0191 26.2572 29.6815C26.3435 29.6271 26.418 29.5558 26.4762 29.472C26.5344 29.3881 26.5751 29.2934 26.5959 29.1935C26.6167 29.0936 26.6171 28.9905 26.5972 28.8904C26.5773 28.7903 26.5375 28.6952 26.48 28.6109C26.4226 28.5265 26.3488 28.4546 26.2629 28.3994C26.1771 28.3442 26.081 28.3068 25.9804 28.2895C25.8798 28.2723 25.7768 28.2754 25.6774 28.2988C25.5781 28.3222 25.4845 28.3654 25.4022 28.4258C23.4939 29.7248 21.2807 30.3784 19.0639 30.3926C19.0115 30.3881 18.9588 30.3891 18.9066 30.3955C16.0228 30.3743 13.1452 29.265 10.9399 27.0601C8.90445 25.025 7.80863 22.4173 7.63422 19.76H10.6787C11.0646 24.0132 14.6483 27.36 19.0001 27.36C23.3518 27.36 26.9356 24.0132 27.3215 19.76H30.3659C30.2324 21.7409 29.589 23.6939 28.4259 25.4021C28.3682 25.4845 28.3276 25.5775 28.3061 25.6758C28.2847 25.774 28.283 25.8756 28.3011 25.9745C28.3192 26.0734 28.3568 26.1677 28.4116 26.252C28.4664 26.3363 28.5374 26.4089 28.6205 26.4655C28.7036 26.5222 28.7971 26.5618 28.8956 26.5821C28.9941 26.6024 29.0956 26.6029 29.1943 26.5836C29.293 26.5644 29.3869 26.5257 29.4705 26.4699C29.5542 26.4141 29.6259 26.3423 29.6816 26.2586C31.1279 24.1346 31.8617 21.6747 31.9023 19.2063C31.9377 19.0788 31.9393 18.9442 31.9067 18.8159C31.8625 15.57 30.6088 12.3385 28.1349 9.86514C25.9078 7.63841 23.0678 6.39588 20.1549 6.13788C20.0235 6.12624 19.8917 6.1277 19.7601 6.12007V3.11569C22.9019 3.26631 26.0088 4.28383 28.6381 6.28186C28.7174 6.34376 28.8082 6.3893 28.9053 6.41584C29.0023 6.44238 29.1037 6.44938 29.2035 6.43646C29.3032 6.42353 29.3994 6.39092 29.4865 6.34052C29.5736 6.29013 29.6498 6.22294 29.7107 6.14287C29.7716 6.0628 29.816 5.97143 29.8414 5.87407C29.8667 5.7767 29.8724 5.67528 29.8583 5.57567C29.8441 5.47607 29.8103 5.38026 29.7588 5.29382C29.7074 5.20738 29.6393 5.13201 29.5584 5.0721C26.5452 2.78229 22.9558 1.66859 19.3504 1.59569C19.2387 1.53741 19.1142 1.50783 18.9882 1.5096ZM19.0001 12.16C22.7568 12.16 25.7876 15.1659 25.8356 18.9109C25.8283 18.9716 25.8283 19.0329 25.8356 19.0935C25.7853 22.8364 22.7553 25.84 19.0001 25.84C15.2434 25.84 12.2125 22.834 12.1645 19.0891C12.1719 19.0284 12.1719 18.9671 12.1645 18.9065C12.2149 15.1636 15.2449 12.16 19.0001 12.16ZM19.0001 16.72C17.7408 16.72 16.7201 17.7407 16.7201 19C16.7201 20.2593 17.7408 21.28 19.0001 21.28C20.2594 21.28 21.2801 20.2593 21.2801 19C21.2801 17.7407 20.2594 16.72 19.0001 16.72Z" fill="#68FF53"/>
</svg>
