<svg xmlns="http://www.w3.org/2000/svg" fill="none" viewBox="0 0 42 35"><path fill="#68FF53" d="M10.053 0C6.471 0 3.15 1.868 1.36 4.89a.875.875 0 0 0 .315 1.244.93.93 0 0 0 1.264-.356c1.466-2.472 4.184-4 7.115-4s5.65 1.528 7.115 4a.893.893 0 0 0 .555.44.937.937 0 0 0 .71-.084.905.905 0 0 0 .43-.557.867.867 0 0 0-.115-.688C16.957 1.868 13.636 0 10.053 0zm0 3.556c-2.28 0-4.394 1.188-5.533 3.111a.874.874 0 0 0 .334 1.215.93.93 0 0 0 1.247-.326c.814-1.373 2.324-2.222 3.952-2.222 1.629 0 3.139.85 3.953 2.222a.896.896 0 0 0 .554.415.936.936 0 0 0 .693-.089.905.905 0 0 0 .425-.54.864.864 0 0 0-.091-.675c-1.14-1.923-3.254-3.111-5.534-3.111zm0 3.556c-.977 0-1.882.51-2.37 1.333a.869.869 0 0 0-.092.675.893.893 0 0 0 .426.54c.21.118.458.15.692.089a.91.91 0 0 0 .555-.415.916.916 0 0 1 .79-.444c.325 0 .626.17.79.444a.91.91 0 0 0 .553.415c.234.06.483.029.693-.089a.892.892 0 0 0 .425-.54.869.869 0 0 0-.09-.675 2.756 2.756 0 0 0-2.372-1.333zm13.378 3.556c-1.21 0-2.371.468-3.227 1.302l-.599.584c-.515.5-1.209.78-1.936.78h-3.965a.878.878 0 0 0-.267-.628.926.926 0 0 0-.645-.26H7.315a.926.926 0 0 0-.645.26.878.878 0 0 0-.268.629H.926a.934.934 0 0 0-.654.256.888.888 0 0 0-.272.633.87.87 0 0 0 .272.633.914.914 0 0 0 .654.256h5.476v1.589c-.555.49-.912 1.188-.912 1.967v3.556c0 .779.357 1.477.912 1.967v1.589H.926a.934.934 0 0 0-.654.256.888.888 0 0 0-.272.633.869.869 0 0 0 .272.633.915.915 0 0 0 .654.256h5.476c0 .236.097.462.268.628.17.167.403.26.645.26h5.477a.925.925 0 0 0 .645-.26.877.877 0 0 0 .267-.628h4.336c.558 0 1.102.165 1.56.474l8.438 5.693c1.808 1.22 4.27 1.006 5.826-.51l3.02-2.942a.888.888 0 0 0 .046-.048h1.875c1.754 0 3.195-1.404 3.195-3.112 0-1.128-.66-2.08-1.592-2.625.398-.519.68-1.128.68-1.82 0-1.128-.66-2.08-1.593-2.625.398-.519.68-1.128.68-1.82 0-1.128-.66-2.08-1.592-2.625.397-.519.679-1.128.679-1.82 0-1.707-1.441-3.111-3.195-3.111H23.431zm0 1.778h12.636c.767 0 1.37.586 1.37 1.333 0 .748-.602 1.334-1.37 1.334a.925.925 0 0 0-.637.265.877.877 0 0 0-.263.624c0 .233.094.458.263.624a.925.925 0 0 0 .637.265h.913c.767 0 1.369.586 1.369 1.333 0 .748-.602 1.334-1.37 1.334a.925.925 0 0 0-.636.265.877.877 0 0 0-.263.624c0 .233.094.458.263.624a.925.925 0 0 0 .637.265h.913c.767 0 1.369.586 1.369 1.333 0 .748-.602 1.334-1.37 1.334a.925.925 0 0 0-.637.265.877.877 0 0 0-.262.624c0 .233.094.458.262.624a.925.925 0 0 0 .638.265h.912c.768 0 1.37.586 1.37 1.333 0 .748-.602 1.334-1.37 1.334h-6.904a.935.935 0 0 0-.654.256.89.89 0 0 0-.272.633.869.869 0 0 0 .272.633.915.915 0 0 0 .654.256h2.451l-1.78 1.733a2.784 2.784 0 0 1-3.495.307l-8.438-5.693a4.647 4.647 0 0 0-2.599-.792h-4.336v-1.589c.555-.49.913-1.188.913-1.967v-3.556c0-.78-.358-1.478-.913-1.967v-1.59h3.965a4.63 4.63 0 0 0 3.227-1.3v-.001l.599-.584h.002a2.767 2.767 0 0 1 1.934-.781zm-15.19 1.778h3.625c0 .047.005.094.013.14v1.638H8.228v-1.629c.008-.05.012-.099.012-.15zm-.013 3.556h3.65c.517 0 .914.387.914.889v3.556c0 .502-.397.889-.913.889H8.228c-.516 0-.913-.387-.913-.89V18.67c0-.319.17-.576.419-.733a.92.92 0 0 0 .143-.09.96.96 0 0 1 .35-.066zm0 7.112h3.65v1.628a.87.87 0 0 0-.012.15H8.24a.867.867 0 0 0-.012-.14v-1.638z"/></svg>