<svg fill="none" viewBox="0 0 38 38" xmlns="http://www.w3.org/2000/svg"><path d="m7.553.404-.547.522-6.08 6.08-.522.546.522.547 11.875 11.875-9.523 9.523a.775.775 0 0 0 -.214.333l-1.52 5.7a.758.758 0 0 0 .199.727c.19.19.466.268.727.2l5.7-1.52a.774.774 0 0 0 .333-.215l26.267-26.267.618-.617a3.692 3.692 0 0 0 0-5.226 3.692 3.692 0 0 0 -5.225 0l-10.19 10.19-11.873-11.877zm0 2.161 1.235 1.235-.974.974 1.092 1.092.974-.973 1.188 1.187-1.734 1.734 1.092 1.092 1.734-1.734 1.188 1.188-.974.974 1.092 1.092.974-.973 1.188 1.187-1.734 1.734 1.092 1.092 1.734-1.733 1.188 1.187-.974.974.974.973-4.014 4.014-11.329-11.329zm23.06 1.734 3.088 3.087-26.125 26.125-3.086-3.087 26.124-26.125zm-4.773 14.391-.546.523-1.52 1.52 1.092 1.092.974-.974 1.188 1.188-1.734 1.734 1.092 1.092 1.734-1.733 1.188 1.187-.974.974 1.092 1.092.974-.973 1.188 1.187-1.734 1.734 1.092 1.092 1.734-1.733 1.188 1.187-.974.974 1.092 1.092.974-.974.475.476-4.987 4.987-10.688-10.663-1.069 1.069 11.21 11.234.547.522.546-.522 6.08-6.08.522-.546-.522-.547-11.234-11.21z" fill="#68ff53"/></svg>