<svg width="38" height="38" viewBox="0 0 38 38" fill="none" xmlns="http://www.w3.org/2000/svg">
<path d="M21.7663 36.4803C25.9093 36.4803 28.5718 34.5669 29.4034 32.5126C32.6665 31.8187 34.9609 28.2489 34.9609 24.3218C34.9609 22.7052 34.492 21.0868 33.6799 19.2897C34.3432 18.4783 34.9609 17.4607 34.9609 15.9603C34.9609 13.9938 33.6733 12.0992 31.3791 11.044C32.0997 9.36758 31.9452 7.75046 31.0867 6.59982C30.1951 5.40468 28.6967 4.78278 27.0878 4.65974C26.6001 3.37869 25.7216 2.48872 24.7484 2.06505C23.6401 1.58254 22.5061 1.52028 21.7663 1.52028C20.6354 1.52028 19.6438 2.05333 18.9995 2.87997C18.3555 2.05816 17.3669 1.52842 16.2415 1.52028L16.24 1.52028C15.5407 1.51527 14.4112 1.57902 13.2935 2.0606C12.329 2.47617 11.452 3.3511 10.9497 4.59888C9.73472 4.63811 8.47776 4.81806 7.41242 5.41825C6.21548 6.09261 5.32094 7.36912 5.32094 9.12028C5.32094 9.80499 5.56777 10.437 5.85977 11.0722C4.88382 11.5574 4.11484 12.1785 3.69406 12.9455C3.16367 13.9124 3.04094 14.9723 3.04094 15.9603C3.04094 17.4752 3.7564 18.3864 4.4511 19.1309C3.62693 20.9277 3.01408 22.6644 3.04094 24.3336C3.1116 28.7678 6.09983 31.8805 9.34063 32.5244C10.0628 34.4228 12.1164 36.4803 16.2355 36.4803C17.2723 36.4803 18.2795 36.214 18.9148 35.3952C18.9462 35.3548 18.9716 35.3096 19.0009 35.2675C19.0302 35.3096 19.0557 35.3548 19.087 35.3952C19.7223 36.214 20.7296 36.4803 21.7663 36.4803ZM21.7663 34.9603C20.9464 34.9603 20.5712 34.8296 20.2879 34.4645C20.0046 34.0994 19.7609 33.2797 19.7609 31.7793L19.7609 27.4879C19.7745 27.4059 19.7745 27.3221 19.7609 27.2401L19.7609 24.3203L22.0409 24.3203L22.0409 28.1203L25.2234 28.1203C25.5406 28.9999 26.3781 29.6403 27.3609 29.6403C28.6111 29.6403 29.6409 28.6105 29.6409 27.3603C29.6409 26.1101 28.6111 25.0803 27.3609 25.0803C26.3781 25.0803 25.5406 25.7207 25.2234 26.6003L23.5609 26.6003L23.5609 22.8003L19.7609 22.8003L19.7609 16.7203L25.0809 16.7203L25.0809 12.0178C25.9605 11.7006 26.6009 10.8631 26.6009 9.88029C26.6009 8.63008 25.5711 7.60029 24.3209 7.60029C23.0707 7.60028 22.0409 8.63008 22.0409 9.88028C22.0409 10.8631 22.6814 11.7006 23.5609 12.0178L23.5609 15.2003L19.7609 15.2003L19.7609 10.0079C19.7745 9.92587 19.7745 9.84212 19.7609 9.76005L19.7609 5.06794C19.7609 3.82421 20.5663 3.04028 21.7663 3.04028C22.4067 3.04028 23.3486 3.11375 24.1413 3.45888C24.9341 3.80401 25.5771 4.34442 25.8632 5.50286L26.0057 6.08029L26.6009 6.08029C27.9947 6.08029 29.2354 6.66026 29.868 7.50825C30.5007 8.35625 30.6682 9.46459 29.7478 11.0114L29.2669 11.8204L30.159 12.1202C32.4783 12.8997 33.4409 14.4585 33.4409 15.9603C33.4409 17.2672 32.9558 17.9264 32.2698 18.6767L31.9744 19.0003L29.4984 19.0003C29.1812 18.1207 28.3437 17.4803 27.3609 17.4803C26.1107 17.4803 25.0809 18.5101 25.0809 19.7603C25.0809 21.0105 26.1107 22.0403 27.3609 22.0403C28.3437 22.0403 29.1812 21.3999 29.4984 20.5203L32.58 20.5203C33.1561 21.9236 33.4409 23.1337 33.4409 24.3218C33.4409 27.8101 31.2556 30.8632 28.7889 31.1662L28.2872 31.2271L28.1506 31.7125C27.8104 32.909 25.6592 34.9603 21.7663 34.9603ZM16.2355 34.9603C12.3427 34.9603 11.0097 33.1114 10.6113 31.7125L10.4732 31.2271L9.97297 31.1662C7.41043 30.8514 4.62374 28.2497 4.56094 24.3084C4.53844 22.9099 5.11056 21.2046 6.00672 19.3283L6.2368 18.8459L5.86274 18.4674C5.07048 17.6637 4.56094 17.2361 4.56094 15.9603C4.56094 15.1038 4.67773 14.3141 5.02703 13.6773C5.24958 13.2716 5.58582 12.9136 6.08094 12.6041L6.08094 15.9603L12.9209 15.9603L12.9209 18.3828C12.0414 18.7 11.4009 19.5375 11.4009 20.5203C11.4009 21.7705 12.4307 22.8003 13.6809 22.8003C14.9311 22.8003 15.9609 21.7705 15.9609 20.5203C15.9609 19.5375 15.3205 18.7 14.4409 18.3828L14.4409 14.4403L7.60094 14.4403L7.60094 11.5086C7.62719 11.3351 7.59257 11.1578 7.50297 11.0069C7.50248 11.0064 7.50198 11.0059 7.50149 11.0054C7.10762 10.2014 6.84094 9.51963 6.84094 9.12028C6.84094 7.83145 7.33255 7.20796 8.15907 6.74231C8.98558 6.27667 10.2036 6.08028 11.4009 6.08028L11.9962 6.08028L12.1387 5.50286C12.4228 4.35262 13.0862 3.80426 13.8947 3.45591C14.7032 3.10756 15.6491 3.03615 16.2296 3.04028C17.4361 3.04901 18.2409 3.82421 18.2409 5.06794L18.2409 9.12028L15.0584 9.12028C14.7412 8.24071 13.9037 7.60028 12.9209 7.60028C11.6707 7.60028 10.6409 8.63008 10.6409 9.88028C10.6409 11.1305 11.6707 12.1603 12.9209 12.1603C13.9037 12.1603 14.7412 11.5199 15.0584 10.6403L18.2409 10.6403L18.2409 15.8326C18.2274 15.9147 18.2274 15.9984 18.2409 16.0805L18.2409 23.4326C18.2274 23.5147 18.2274 23.5984 18.2409 23.6805L18.2409 26.6003L12.0184 26.6003C11.7012 25.7207 10.8637 25.0803 9.88094 25.0803C8.63073 25.0803 7.60094 26.1101 7.60094 27.3603C7.60094 28.6105 8.63073 29.6403 9.88094 29.6403C10.8637 29.6403 11.7012 28.9999 12.0184 28.1203L18.2409 28.1203L18.2409 31.7793C18.2409 33.2797 17.9973 34.0994 17.714 34.4645C17.4307 34.8296 17.0555 34.9603 16.2355 34.9603ZM27.3609 28.1203C26.9476 28.1203 26.6325 27.8096 26.6098 27.4033C26.6115 27.3742 26.6115 27.3449 26.6098 27.3158C26.6332 26.9102 26.9481 26.6003 27.3609 26.6003C27.7897 26.6003 28.1209 26.9315 28.1209 27.3603C28.1209 27.789 27.7897 28.1203 27.3609 28.1203ZM9.88094 28.1203C9.4522 28.1203 9.12094 27.789 9.12094 27.3603C9.12094 26.9315 9.4522 26.6003 9.88094 26.6003C10.2942 26.6003 10.6093 26.911 10.632 27.3172C10.6303 27.3464 10.6303 27.3756 10.632 27.4048C10.6086 27.8103 10.2937 28.1203 9.88094 28.1203ZM13.6809 21.2803C13.2522 21.2803 12.9209 20.949 12.9209 20.5203C12.9209 20.107 13.2316 19.7919 13.6379 19.7692C13.6562 19.7703 13.6745 19.7708 13.6928 19.7707C13.7037 19.7704 13.7146 19.7699 13.7255 19.7692C14.131 19.7926 14.4409 20.1075 14.4409 20.5203C14.4409 20.949 14.1097 21.2803 13.6809 21.2803ZM27.3609 20.5203C26.9322 20.5203 26.6009 20.189 26.6009 19.7603C26.6009 19.3315 26.9322 19.0003 27.3609 19.0003C27.7742 19.0003 28.0893 19.311 28.112 19.7172C28.1103 19.7464 28.1103 19.7756 28.112 19.8048C28.0886 20.2103 27.7737 20.5203 27.3609 20.5203ZM12.9209 10.6403C12.4922 10.6403 12.1609 10.309 12.1609 9.88028C12.1609 9.45155 12.4922 9.12028 12.9209 9.12028C13.3343 9.12028 13.6493 9.43098 13.672 9.83724C13.6704 9.86641 13.6704 9.89565 13.672 9.92482C13.6486 10.3303 13.3337 10.6403 12.9209 10.6403ZM24.364 10.6314C24.3348 10.6297 24.3056 10.6297 24.2764 10.6314C23.8709 10.608 23.5609 10.2931 23.5609 9.88028C23.5609 9.45155 23.8922 9.12029 24.3209 9.12029C24.7497 9.12029 25.0809 9.45155 25.0809 9.88029C25.0809 10.2936 24.7702 10.6087 24.364 10.6314Z" fill="#68FF53"/>
</svg>
