<svg fill="none" height="28" viewBox="0 0 198 28" width="198" xmlns="http://www.w3.org/2000/svg"><g clip-rule="evenodd" fill-rule="evenodd"><path d="m58.4979 25.6574h-5.2176l-6.3306-7.715v7.715h-4.4871v-19.30374c0-2.47815 2.009-4.48708 4.4871-4.48708v14.27452l5.9828-7.47714h5.3567l-6.9915 8.39474zm9.2524.4758c-5.1132 0-9.1829-3.9085-9.1829-8.9725 0-5.0641 4.0697-8.97257 9.1829-8.97257s9.2176 3.90847 9.2176 8.97257c0 5.064-4.1044 8.9725-9.2176 8.9725zm4.7306-8.9725c0 2.7529-2.0523 4.6902-4.7306 4.6902-2.6436 0-4.6958-1.9373-4.6958-4.6902s2.0522-4.6902 4.6958-4.6902c2.6783 0 4.7306 1.9373 4.7306 4.6902zm17.3222-8.97257c3.6871 0 6.5741 2.51507 6.5741 7.03527v10.434h-4.4871v-9.8902c0-2.3111-1.4261-3.5006-3.4435-3.5006-2.1914 0-3.8262 1.2575-3.8262 4.2143v9.1765h-4.4871v-16.99346h4.4871v1.90326c1.0435-1.5294 2.8522-2.37907 5.1827-2.37907zm19.0959 13.96867c-2.365 0-4.278-.9517-4.904-3.1948h13.113c.105-.5778.174-1.1556.174-1.8013 0-4.9961-3.652-8.97257-8.8-8.97257-5.461 0-9.183 3.90847-9.183 8.97257 0 5.064 3.687 8.9725 9.531 8.9725 3.339 0 5.948-1.3255 7.583-3.6366l-3.618-2.0392c-.765.9856-2.157 1.6994-3.896 1.6994zm-4.974-6.5935h8.87c-.557-2.4471-2.435-3.4327-4.313-3.4327-2.4 0-4.035 1.2575-4.557 3.4327zm15.444 1.5974c0 5.064 3.896 8.9725 9.183 8.9725 3.409 0 6.365-1.7673 7.861-4.4183l-3.896-2.1751c-.695 1.3934-2.191 2.2431-4 2.2431-2.678 0-4.661-1.9373-4.661-4.6222 0-2.719 1.983-4.6562 4.661-4.6562 1.774 0 3.27.8836 3.966 2.2771l3.861-2.2092c-1.427-2.61695-4.383-4.38427-7.792-4.38427-5.287 0-9.183 3.90847-9.183 8.97257zm29.358-4.2823h-3.931v7.0693c0 1.8352 1.357 1.8692 3.931 1.7333v3.9765c-6.296.6797-8.418-1.1216-8.418-5.7098v-7.0693h-3.026v-4.21441h3.026v-3.43268l4.487-1.32549v4.75817h3.931zm1.739 4.2823c0 5.064 4.069 8.9725 9.183 8.9725 5.113 0 9.217-3.9085 9.217-8.9725 0-5.0641-4.104-8.97257-9.217-8.97257-5.114 0-9.183 3.90847-9.183 8.97257zm9.183 4.6902c2.678 0 4.73-1.9373 4.73-4.6902s-2.052-4.6902-4.73-4.6902c-2.644 0-4.696 1.9373-4.696 4.6902s2.052 4.6902 4.696 4.6902zm38.192-6.6615c0-4.2483-2.609-7.00127-6.574-7.00127-2.365 0-4.105.91764-5.183 2.44707-.974-1.56341-2.574-2.44707-4.731-2.44707-2.226 0-3.861.84967-4.834 2.27717v-1.80136h-4.488v16.99346h4.488v-9.5503c0-2.549 1.356-3.8405 3.269-3.8405 1.879 0 2.922 1.2235 2.922 3.2287v10.1621h4.487v-9.5503c0-2.549 1.252-3.8405 3.235-3.8405 1.878 0 2.922 1.2235 2.922 3.2287v10.1621h4.487z" fill="#2f3843"/><path d="m24.0535 8.44711c.9798-.96147 2.5717-.96174 3.5518-.00061 1.0817 1.06067 1.082 2.7774.0007 3.8385l-8.646 8.4842c-.3359.3297-.7078.6027-1.1034.8192-.1283.2997-.3169.5806-.5659.8249-1.032 1.0127-2.7087 1.0131-3.7412.0007l-1.5229-1.4932c-.0542-.0487-.1076-.0988-.1602-.1504-.0121-.0119-.0229-.0247-.0322-.0382l-3.27271-3.209c-1.02827-1.0082-1.02862-2.6402-.00078-3.6488 1.03202-1.0128 2.70879-1.0131 3.74119-.0008l3.1121 3.0514z" fill="#fff"/><path d="m34.828 16.8688c-.0935-9.04506-7.9271-16.742397-17.1676-16.86713795-9.73059-.13143705-17.6604 7.54970795-17.6604 17.04353795 0 3.0675.828302 5.9454 2.27743 8.4318.90802 1.5579 2.5966 2.523 4.42902 2.523h21.41605c1.8249 0 3.5126-.9551 4.4188-2.5057 1.4832-2.538 2.3192-5.4849 2.2867-8.6255zm-10.9164-8.24908c1.0233-1.00032 2.6816-1.0006 3.7053-.00063 1.025 1.00127 1.0253 2.62591.0006 3.62751l-10.2419 10.0121c-.0331.0362-.0675.0718-.1031.1066-.5218.5101-1.2089.7601-1.8926.7498-.6589-.0084-1.3152-.2582-1.8182-.7496-.0383-.0374-.0752-.0757-.1106-.1148l-4.8383-4.7259c-1.02452-1.0007-1.02487-2.6246-.00078-3.6257 1.02272-.9999 2.68018-1.0002 3.70338-.0008l3.0994 3.0275z" fill="#ffd66a"/><path d="m11.143 12.7423 4.2734 4.1798c-.7663.7495-1.1624 1.1369-1.28 1.2519-1.2466 1.2194-3.3725 1.4554-4.90936-.0478l-1.79503-1.7541.00083-.0008c-.01923-.0177-.03825-.0358-.05706-.0542-1.02477-1.0023-1.02477-2.6275 0-3.6298 1.02477-1.0024 2.68622-1.0024 3.71102 0 .0188.0184.0373.037.0554.0558z" fill="#ffeab4"/><path d="m13.2664 17.69c.4482-.4384.7092-.6783 1.4755-1.4278l.6747.66-1.28 1.2519c-1.2466 1.2194-3.3724 1.4554-4.90928-.0478l-.15725-.1536c1.19313.6364 3.07083.8182 4.19633-.2827z" fill="#3c4855" fill-opacity=".6" opacity=".170759"/></g></svg>