<svg fill="none" height="29" viewBox="0 0 205 29" width="205" xmlns="http://www.w3.org/2000/svg"><g clip-rule="evenodd" fill-rule="evenodd"><path d="m41.4207 9.22007c3.8146 0 6.6374 2.16373 6.6374 7.41843v11.0118h-4.6919v-9.8913c0-2.8978-1.3351-4.1342-3.6239-4.1342-2.4032 0-4.1197 1.4296-4.1197 5.2933v8.7322h-4.6538v-17.85066h4.6156v2.70466h.0763c1.1825-2.0478 3.1661-3.28423 5.76-3.28423zm18.6534 0c5.3404 0 8.5447 3.43873 8.5447 9.54353v.9273h-13.1604c.2671 2.7433 2.2506 4.3274 4.959 4.3274 2.5176 0 4.2724-1.4296 5.2641-2.4341l2.3651 3.4387c-1.564 1.4683-3.929 3.207-7.6292 3.207-5.76 0-9.4983-3.7865-9.4983-9.4663s3.6238-9.54353 9.155-9.54353zm-.2289 3.82513c-2.2506 0-3.8908 1.1205-4.2723 3.5933h8.3158c-.1526-2.2796-1.7547-3.5933-4.0435-3.5933zm18.0812 15.1847c-3.5857 0-6.523-2.2024-6.523-7.4958v-10.93446h4.8064v10.08446c0 2.7819 1.297 3.9797 3.3187 3.9797 2.3269 0 3.8909-1.5455 3.8909-5.4866v-8.57756h4.692v17.85066h-4.6157v-2.7433h-.0763c-1.0681 1.9319-2.7465 3.3229-5.493 3.3229zm25.0236-18.97121v5.10021h-.534c-3.7382 0-5.5311 1.6228-5.5311 5.9888v7.3026h-4.6538v-17.85068h4.6157v3.78648h.0763c.9155-2.7819 2.9372-4.32741 5.8359-4.32741zm10.261-.03862c5.608 0 9.766 3.90243 9.766 9.50493 0 5.6024-4.158 9.5049-9.766 9.5049-5.607 0-9.765-3.9025-9.765-9.5049 0-5.6025 4.158-9.50493 9.765-9.50493zm0 4.48193c-2.861 0-4.959 1.9706-4.959 5.0229 0 3.0524 2.098 5.023 4.959 5.023s4.921-1.9706 4.921-5.023c0-3.0523-2.06-5.0229-4.921-5.0229zm20.18 14.5279c-4.616 0-8.469-3.4002-8.469-9.5049 0-6.1048 3.853-9.50493 8.469-9.50493 2.861 0 4.768 1.23643 5.874 3.09103h.076v-11.707251h4.654v27.046451h-4.654v-2.5115h-.076c-1.106 1.8546-3.013 3.0911-5.874 3.0911zm1.182-4.482c2.823 0 4.768-2.0092 4.768-5.023 0-3.0137-1.945-5.0229-4.768-5.0229s-4.768 2.0092-4.768 5.0229c0 3.0138 1.945 5.023 4.768 5.023zm16.098-23.414526c1.831 0 3.166 1.352326 3.166 3.206936 0 1.81597-1.335 3.1683-3.166 3.1683-1.793 0-3.128-1.35233-3.128-3.1683 0-1.85461 1.335-3.206936 3.128-3.206936zm-2.365 27.316926v-17.85066h4.692v17.85066zm17.013-18.43023c5.34 0 8.544 3.43873 8.544 9.54353v.9273h-13.16c.267 2.7433 2.251 4.3274 4.959 4.3274 2.518 0 4.272-1.4296 5.264-2.4341l2.365 3.4387c-1.564 1.4683-3.929 3.207-7.629 3.207-5.76 0-9.498-3.7865-9.498-9.4663s3.624-9.54353 9.155-9.54353zm-.229 3.82513c-2.251 0-3.891 1.1205-4.272 3.5933h8.315c-.152-2.2796-1.754-3.5933-4.043-3.5933zm11.749 14.6051v-17.85066h4.615v2.70466h.077c.992-2.2024 2.975-3.28423 5.378-3.28423 2.594 0 4.463 1.19773 5.417 3.55463h.076c1.183-2.3955 3.357-3.55463 5.76-3.55463 3.434 0 6.142 2.27963 6.142 7.10933v11.3209h-4.692v-10.3163c0-2.3569-1.068-3.7092-3.204-3.7092-2.022 0-3.548 1.3137-3.548 4.9456v9.0799h-4.616v-10.3163c0-2.3569-1.03-3.7092-3.166-3.7092-2.021 0-3.585 1.3137-3.585 4.9842v9.0413z" fill="#202124"/><path d="m21.7374 10.8084c0 2.1032-1.6864 3.8083-3.7667 3.8083s-3.7667-1.7051-3.7667-3.8083c0-2.10334 1.6864-3.8084 3.7667-3.8084s3.7667 1.70506 3.7667 3.8084zm-13.56008 13.71c0 2.1033-1.68641 3.8084-3.7667 3.8084s-3.766699-1.7051-3.766699-3.8084 1.686409-3.8083 3.766699-3.8083 3.7667 1.705 3.7667 3.8083zm11.22478-3.4546c1.4116.5875 2.3338 1.9798 2.3353 3.5258-.0365 1.7912-1.2983 3.3154-3.0331 3.6639-1.7347.3486-3.4752-.5724-4.1838-2.2139l-1.2054-2.7016c-.8481-1.654-1.9405-3.1672-3.2394-4.4873-1.30307-1.3158-2.79682-2.4224-4.42959-3.2816l-2.66682-1.221c-1.58219-.6551-2.530634-2.3072-2.310196-4.0243.220439-1.717 1.554496-3.06843 3.249456-3.29174 1.69495-.22331 3.32586.73749 3.97251 2.34028l1.20535 2.70156c.8389 1.652 1.92099 3.1651 3.20919 4.4873 1.3032 1.3158 2.7969 2.4224 4.4297 3.2816z" fill="#ff3b31"/></g></svg>