<svg fill="none" height="127" viewBox="0 0 725 127" width="725" xmlns="http://www.w3.org/2000/svg"><path d="m85.382 40.174c0 11.952-4.15 21.248-12.45 27.888-8.1893 6.5293-19.0347 9.794-32.536 9.794h-24.9c-1.2173 0-1.826.6087-1.826 1.826v41.5c0 2.545-1.4387 3.818-4.316 3.818h-21.248c-1.328 0-2.2687-.277-2.822-.83-.4427-.553-.664-1.383-.664-2.49v-116.69801c0-2.10266.8853-3.154 2.656-3.154h49.8c9.1853 0 17.3747 1.43867 24.568 4.31601 7.304 2.76666 13.0587 7.0273 17.264 12.782 4.316 5.7547 6.474 12.8373 6.474 21.248zm-29.88-.498c0-5.644-1.826-9.9047-5.478-12.782s-8.5767-4.316-14.774-4.316h-18.426c-1.1067 0-1.9367.2213-2.49.664-.4427.4427-.664 1.2173-.664 2.324v28.386c0 1.1067.166 1.9367.498 2.49.332.4427.9407.664 1.826.664h20.418c5.8653 0 10.5133-1.5493 13.944-4.648s5.146-7.3593 5.146-12.782zm29.7023 85.324c-1.66 0-2.49-.941-2.49-2.822 0-.885.1107-1.549.332-1.992l41.3337-115.03801c.443-1.21733.941-2.04733 1.494-2.49.664-.55333 1.605-.83 2.822-.83h24.9c1.218 0 2.269.332 3.154.996.886.664 1.494 1.54934 1.826 2.65601l41.002 115.038c.222.664.332 1.162.332 1.494 0 .885-.221 1.605-.664 2.158-.332.553-.885.83-1.66.83h-24.402c-1.66 0-2.711-.775-3.154-2.324l-8.632-24.236c-.221-.664-.498-1.1067-.83-1.328-.221-.332-.664-.498-1.328-.498h-40.504c-1.106 0-1.826.5533-2.158 1.66l-8.798 24.568c-.664 1.439-1.826 2.158-3.486 2.158zm67.2297-50.464c1.107 0 1.66-.4427 1.66-1.328 0-.664-.055-1.162-.166-1.494l-13.944-38.844c-.332-.664-.719-.996-1.162-.996-.332 0-.664.3873-.996 1.162l-14.11 38.678c-.221.664-.332 1.162-.332 1.494 0 .8853.609 1.328 1.826 1.328zm134.07-43.658c-2.877-3.2093-6.197-5.6993-9.96-7.47-3.652-1.8813-8.466-2.822-14.442-2.822-6.751 0-11.897 1.2173-15.438 3.652s-5.312 5.644-5.312 9.628c0 5.7547 4.482 9.96 13.446 12.616l26.228 7.47c9.849 2.7667 17.153 7.138 21.912 13.114 4.869 5.976 7.304 13.1693 7.304 21.58 0 7.7467-1.992 14.497-5.976 20.252-3.984 5.644-9.739 10.015-17.264 13.114-7.415 3.099-16.157 4.648-26.228 4.648-11.288 0-21.469-1.881-30.544-5.644-9.075-3.873-15.715-9.13-19.92-15.77-.443-.775-.664-1.494-.664-2.158 0-.885.553-1.826 1.66-2.822l12.782-8.798c1.107-.664 2.103-.996 2.988-.996.996 0 1.826.4427 2.49 1.328 4.095 5.312 8.245 9.075 12.45 11.288s9.794 3.32 16.766 3.32c7.415 0 13.225-1.162 17.43-3.486s6.308-5.81 6.308-10.458c0-2.988-1.051-5.5333-3.154-7.636s-5.644-3.9287-10.624-5.478l-25.066-7.138c-9.517-2.656-16.877-7.0827-22.078-13.28-5.201-6.308-7.802-13.446-7.802-21.414 0-7.0827 1.937-13.446 5.81-19.09 3.984-5.644 9.573-10.07067 16.766-13.28001 7.193-3.32 15.493-4.979996 24.9-4.979996 9.296 0 17.817 1.604666 25.564 4.813996 7.747 3.09867 13.667 7.30401 17.762 12.61601.664.8853.996 1.66.996 2.324s-.332 1.2727-.996 1.826l-13.944 10.292c-.664.4427-1.162.664-1.494.664-.553 0-1.439-.6087-2.656-1.826zm112.342 0c-2.878-3.2093-6.198-5.6993-9.96-7.47-3.652-1.8813-8.466-2.822-14.442-2.822-6.751 0-11.897 1.2173-15.438 3.652-3.542 2.4347-5.312 5.644-5.312 9.628 0 5.7547 4.482 9.96 13.446 12.616l26.228 7.47c9.849 2.7667 17.153 7.138 21.912 13.114 4.869 5.976 7.304 13.1693 7.304 21.58 0 7.7467-1.992 14.497-5.976 20.252-3.984 5.644-9.739 10.015-17.264 13.114-7.415 3.099-16.158 4.648-26.228 4.648-11.288 0-21.47-1.881-30.544-5.644-9.075-3.873-15.715-9.13-19.92-15.77-.443-.775-.664-1.494-.664-2.158 0-.885.553-1.826 1.66-2.822l12.782-8.798c1.106-.664 2.102-.996 2.988-.996.996 0 1.826.4427 2.49 1.328 4.094 5.312 8.244 9.075 12.45 11.288 4.205 2.213 9.794 3.32 16.766 3.32 7.414 0 13.224-1.162 17.43-3.486 4.205-2.324 6.308-5.81 6.308-10.458 0-2.988-1.052-5.5333-3.154-7.636-2.103-2.1027-5.644-3.9287-10.624-5.478l-25.066-7.138c-9.518-2.656-16.877-7.0827-22.078-13.28-5.202-6.308-7.802-13.446-7.802-21.414 0-7.0827 1.936-13.446 5.81-19.09 3.984-5.644 9.572-10.07067 16.766-13.28001 7.193-3.32 15.493-4.979996 24.9-4.979996 9.296 0 17.817 1.604666 25.564 4.813996 7.746 3.09867 13.667 7.30401 17.762 12.61601.664.8853.996 1.66.996 2.324s-.332 1.2727-.996 1.826l-13.944 10.292c-.664.4427-1.162.664-1.494.664-.554 0-1.439-.6087-2.656-1.826zm68.02-29.05001c1.77 0 2.656.996 2.656 2.988v116.20001c0 1.439-.332 2.49-.996 3.154-.664.553-1.826.83-3.486.83h-20.916c-1.328 0-2.269-.277-2.822-.83-.554-.553-.83-1.439-.83-2.656v-116.53201c0-2.10266.885-3.154 2.656-3.154zm78.755 124.83201c-11.62 0-21.746-2.49-30.378-7.47-8.521-5.091-15.106-12.339-19.754-21.746-4.537-9.4067-6.806-20.584-6.806-33.532 0-13.0587 2.324-24.3467 6.972-33.864 4.648-9.628 11.233-16.9873 19.754-22.07801 8.632-5.20133 18.703-7.801996 30.212-7.801996 11.399 0 21.359 2.600666 29.88 7.801996 8.521 5.09071 15.106 12.45001 19.754 22.07801 4.648 9.5173 6.972 20.75 6.972 33.698 0 12.8373-2.324 24.0147-6.972 33.532-4.537 9.407-11.067 16.655-19.588 21.746s-18.537 7.636-30.046 7.636zm0-20.418c9.185 0 15.825-3.32 19.92-9.96 4.205-6.64 6.308-17.3747 6.308-32.204 0-15.1613-2.158-26.228-6.474-33.2-4.205-6.972-10.79-10.458-19.754-10.458-9.185 0-15.936 3.486-20.252 10.458-4.205 6.972-6.308 18.0387-6.308 33.2 0 14.8293 2.103 25.564 6.308 32.204s10.956 9.96 20.252 9.96zm176.361-104.41401c1.438 0 2.158.83 2.158 2.49v118.02601c0 .775-.332 1.439-.996 1.992-.554.443-1.273.664-2.158.664h-16.766c-.996 0-1.771-.111-2.324-.332-.554-.221-1.162-.775-1.826-1.66l-52.954-74.368c-.443-.5533-.886-.7747-1.328-.664-.332.1107-.498.4427-.498.996v73.04.498c0 .885-.277 1.549-.83 1.992-.443.332-1.273.498-2.49.498h-17.264c-2.214 0-3.32-.941-3.32-2.822v-117.19601c0-2.10266.996-3.154 2.988-3.154h20.086c1.328 0 2.268.166 2.822.49801.553.22133 1.217.88532 1.992 1.99199l48.804 69.55401c.664.8853 1.217 1.328 1.66 1.328.553 0 .83-.6087.83-1.826v-68.55801c0-1.992.996-2.988 2.988-2.988z" fill="#f3f4f9"/></svg>