<svg fill="none" height="126" viewBox="0 0 721 126" width="721" xmlns="http://www.w3.org/2000/svg"><path d="m56.412.167994c6.4187 0 12.3947.940666 17.928 2.822006 5.644 1.77066 10.6793 4.31599 15.106 7.636 4.4267 3.32 8.0233 7.1933 10.79 11.62 2.877 4.4267 4.759 9.2407 5.644 14.442.443 1.7707.498 2.9327.166 3.486-.221.5533-.83.8853-1.826.996l-22.41 1.494c-.996 0-1.66-.166-1.992-.498-.2213-.4427-.4427-1.1067-.664-1.992-1.2173-5.7547-3.5967-10.458-7.138-14.11-3.5413-3.7627-8.466-5.644-14.774-5.644-8.3 0-14.8293 3.3753-19.588 10.126-4.648 6.64-6.972 17.43-6.972 32.37 0 14.8293 2.2133 25.6193 6.64 32.37 4.5373 6.64 11.288 9.96 20.252 9.96 6.4187 0 11.952-1.605 16.6-4.814 4.648-3.2093 8.466-8.6873 11.454-16.434.4427-.996 1.66-1.328 3.652-.996l16.268 3.486c.553.1107 1.051.4427 1.494.996.443.4427.553 1.494.332 3.154-.553 2.324-1.66 5.0353-3.32 8.134-1.549 3.099-3.652 6.308-6.308 9.628-2.656 3.209-5.976 6.197-9.96 8.964-3.8733 2.767-8.4107 5.035-13.612 6.806-5.2013 1.66-11.122 2.49-17.762 2.49-11.3987 0-21.3587-2.711-29.88-8.134-8.4107-5.423-14.8847-12.948-19.422-22.576-4.53733-9.628-6.805999-20.8053-6.805999-33.532 0-12.8373 2.268669-23.8487 6.805999-33.034 4.5373-9.296 11.0113-16.4893 19.422-21.58 8.4107-5.09067 18.3707-7.636006 29.88-7.636006zm121.281 126.492006c-11.731 0-21.857-2.49-30.378-7.47-8.521-5.091-15.106-12.339-19.754-21.746-4.537-9.4067-6.806-20.584-6.806-33.532 0-13.1693 2.324-24.5127 6.972-34.03 4.759-9.5173 11.399-16.8213 19.92-21.91201 8.521-5.20133 18.537-7.801996 30.046-7.801996s21.469 2.600666 29.88 7.801996c8.521 5.09071 15.106 12.39471 19.754 21.91201 4.648 9.4067 6.972 20.6947 6.972 33.864 0 12.948-2.324 24.1253-6.972 33.532-4.537 9.407-11.067 16.655-19.588 21.746s-18.537 7.636-30.046 7.636zm0-20.418c9.075 0 15.715-3.265 19.92-9.794 4.205-6.64 6.308-17.43 6.308-32.37 0-15.272-2.158-26.3387-6.474-33.2-4.205-6.972-10.79-10.458-19.754-10.458-9.075 0-15.77 3.486-20.086 10.458s-6.474 18.0387-6.474 33.2c0 14.8293 2.103 25.564 6.308 32.204 4.316 6.64 11.067 9.96 20.252 9.96zm75.765-101.26001c0-2.10266.885-3.154 2.656-3.154h23.738c1.771 0 2.656.996 2.656 2.988v96.77801c0 1.439.609 2.158 1.826 2.158h52.954c1.992 0 2.988.83 2.988 2.49v15.77c0 .885-.277 1.605-.83 2.158-.443.553-1.217.83-2.324.83h-80.012c-1.439 0-2.435-.277-2.988-.83-.443-.553-.664-1.439-.664-2.656zm104.074 0c0-2.10266.885-3.154 2.656-3.154h23.738c1.771 0 2.656.996 2.656 2.988v96.77801c0 1.439.609 2.158 1.826 2.158h52.954c1.992 0 2.988.83 2.988 2.49v15.77c0 .885-.277 1.605-.83 2.158-.443.553-1.217.83-2.324.83h-80.012c-1.439 0-2.435-.277-2.988-.83-.443-.553-.664-1.439-.664-2.656zm96.37 120.01801c-.996 0-1.716-.443-2.158-1.328-.443-.885-.443-2.047 0-3.486l41.334-115.03801c.442-1.21733.94-2.04733 1.494-2.49.553-.55333 1.494-.83 2.822-.83h24.9c2.434 0 4.094 1.21734 4.98 3.65201l41.002 115.038c.332.885.332 1.881 0 2.988-.332.996-.996 1.494-1.992 1.494h-24.402c-1.66 0-2.712-.775-3.154-2.324l-8.632-24.236c-.111-.5533-.332-.996-.664-1.328-.222-.332-.72-.498-1.494-.498h-40.504c-1.107 0-1.826.5533-2.158 1.66l-8.798 24.568c-.222.664-.609 1.217-1.162 1.66-.443.332-1.218.498-2.324.498zm67.23-50.464c1.549 0 2.047-.9407 1.494-2.822l-13.944-38.844c-.332-.664-.72-.996-1.162-.996-.332 0-.664.3873-.996 1.162l-14.11 38.678c-.775 1.8813-.277 2.822 1.494 2.822zm67.642 50.464c-.996 0-1.771-.277-2.324-.83s-.83-1.273-.83-2.158v-116.698c0-.996.277-1.82601.83-2.49001.664-.664 1.494-.996 2.49-.996h44.986c16.268 0 28.663 2.76667 37.184 8.30001 8.632 5.4227 12.948 13.446 12.948 24.07 0 6.0867-1.66 11.2327-4.98 15.438-3.209 4.2053-8.798 8.0233-16.766 11.454-.332.1107-.498.332-.498.664s.166.5533.498.664c8.743 2.8773 15.051 6.64 18.924 11.288 3.873 4.5373 5.81 10.5133 5.81 17.928 0 11.288-4.261 19.699-12.782 25.232-8.521 5.423-21.248 8.134-38.18 8.134zm46.48-19.588c7.193 0 12.561-1.494 16.102-4.482 3.652-2.988 5.478-6.972 5.478-11.952 0-3.5413-.885-6.474-2.656-8.798-1.771-2.4347-4.205-4.2607-7.304-5.478-2.988-1.2173-6.474-1.826-10.458-1.826h-18.592c-2.103 0-3.154.9407-3.154 2.822v26.56c0 2.103.775 3.154 2.324 3.154zm1.162-52.788c2.545 0 4.925-.2767 7.138-.83 2.324-.5533 4.316-1.494 5.976-2.822 1.771-1.328 3.154-2.9327 4.15-4.814 1.107-1.8813 1.66-4.0947 1.66-6.64 0-5.2013-1.937-9.1853-5.81-11.952-3.763-2.7667-8.632-4.15-14.608-4.15h-17.098c-2.103 0-3.154.9407-3.154 2.822v25.398c0 1.992.775 2.988 2.324 2.988zm120.332 74.036c-11.731 0-21.857-2.49-30.378-7.47-8.521-5.091-15.106-12.339-19.754-21.746-4.537-9.4067-6.806-20.584-6.806-33.532 0-13.1693 2.324-24.5127 6.972-34.03 4.759-9.5173 11.399-16.8213 19.92-21.91201 8.521-5.20133 18.537-7.801996 30.046-7.801996s21.469 2.600666 29.88 7.801996c8.521 5.09071 15.106 12.39471 19.754 21.91201 4.648 9.4067 6.972 20.6947 6.972 33.864 0 12.948-2.324 24.1253-6.972 33.532-4.537 9.407-11.067 16.655-19.588 21.746s-18.537 7.636-30.046 7.636zm0-20.418c9.075 0 15.715-3.265 19.92-9.794 4.205-6.64 6.308-17.43 6.308-32.37 0-15.272-2.158-26.3387-6.474-33.2-4.205-6.972-10.79-10.458-19.754-10.458-9.075 0-15.77 3.486-20.086 10.458s-6.474 18.0387-6.474 33.2c0 14.8293 2.103 25.564 6.308 32.204 4.316 6.64 11.067 9.96 20.252 9.96z" fill="#f3f4f9"/></svg>