<svg fill="none" height="127" viewBox="0 0 735 127" width="735" xmlns="http://www.w3.org/2000/svg"><path d="m37.408 126.66c-11.7307 0-21.8567-2.49-30.378-7.47-8.52133-5.091-15.106-12.339-19.754-21.746-4.5373-9.4067-6.806-20.584-6.806-33.532 0-13.1693 2.324-24.5127 6.972-34.03 4.75867-9.5173 11.39867-16.8213 19.92-21.91201 8.5213-5.20133 18.5367-7.801996 30.046-7.801996s21.4693 2.600666 29.88 7.801996c8.5213 5.09071 15.106 12.39471 19.754 21.91201 4.648 9.4067 6.972 20.6947 6.972 33.864 0 12.948-2.324 24.1253-6.972 33.532-4.5373 9.407-11.0667 16.655-19.588 21.746s-18.5367 7.636-30.046 7.636zm0-20.418c9.0747 0 15.7147-3.265 19.92-9.794 4.2053-6.64 6.308-17.43 6.308-32.37 0-15.272-2.158-26.3387-6.474-33.2-4.2053-6.972-10.79-10.458-19.754-10.458-9.0747 0-15.77 3.486-20.086 10.458s-6.474 18.0387-6.474 33.2c0 14.8293 2.1027 25.564 6.308 32.204 4.316 6.64 11.0667 9.96 20.252 9.96zm175.697 14.276c.442 1.217.387 2.269-.166 3.154-.443.885-1.218 1.328-2.324 1.328h-24.402c-1.882 0-3.099-.996-3.652-2.988l-17.928-46.48c-.664-1.5493-2.214-2.324-4.648-2.324h-15.77c-.775 0-1.328.2213-1.66.664-.222.4427-.332.83-.332 1.162v45.982c0 2.656-1.494 3.984-4.482 3.984h-21.082c-1.328 0-2.269-.277-2.822-.83-.443-.553-.664-1.383-.664-2.49v-116.69801c0-2.10266.885-3.154 2.656-3.154h51.792c14.829 0 26.338 2.93267 34.528 8.79801 8.3 5.8653 12.45 14.2207 12.45 25.066 0 5.644-1.052 10.6793-3.154 15.106-2.103 4.4267-4.87 8.134-8.3 11.122-3.431 2.8773-7.194 5.0353-11.288 6.474-.996.332-1.218 1.162-.664 2.49zm-48.14-66.898c6.308 0 11.122-1.328 14.442-3.984 3.43-2.7667 5.146-6.7507 5.146-11.952 0-5.4227-1.716-9.5173-5.146-12.284-3.431-2.7667-7.968-4.15-13.612-4.15h-20.418c-2.103 0-3.154.9407-3.154 2.822v26.726c0 1.8813.774 2.822 2.324 2.822zm59.816 71.38c-.996 0-1.716-.443-2.158-1.328-.443-.885-.443-2.047 0-3.486l41.334-115.03801c.442-1.21733.94-2.04733 1.494-2.49.553-.55333 1.494-.83 2.822-.83h24.9c2.434 0 4.094 1.21734 4.98 3.65201l41.002 115.038c.332.885.332 1.881 0 2.988-.332.996-.996 1.494-1.992 1.494h-24.402c-1.66 0-2.712-.775-3.154-2.324l-8.632-24.236c-.111-.5533-.332-.996-.664-1.328-.222-.332-.72-.498-1.494-.498h-40.505c-1.106 0-1.825.5533-2.157 1.66l-8.798 24.568c-.222.664-.609 1.217-1.162 1.66-.443.332-1.218.498-2.324.498zm67.23-50.464c1.549 0 2.047-.9407 1.494-2.822l-13.944-38.844c-.332-.664-.72-.996-1.162-.996-.332 0-.664.3873-.996 1.162l-14.11 38.678c-.775 1.8813-.277 2.822 1.494 2.822zm39.379-69.72001c0-.88533.277-1.60467.83-2.158s1.383-.83 2.49-.83h95.284c1.217 0 2.047.27667 2.49.83.553.55333.83 1.27267.83 2.158v15.43801c0 1.66-.996 2.49-2.988 2.49h-31.042c-1.217 0-1.826.5533-1.826 1.66v97.442c0 2.103-.941 3.154-2.822 3.154h-23.738c-1.66 0-2.49-.941-2.49-2.822v-97.276c0-1.4387-.609-2.158-1.826-2.158h-32.038c-2.103 0-3.154-.83-3.154-2.49zm145.526-2.988c1.771 0 2.656.996 2.656 2.988v116.20001c0 1.439-.387 2.49-1.162 3.154-.664.553-1.77.83-3.32.83h-20.916c-1.438 0-2.434-.277-2.988-.83-.442-.553-.664-1.439-.664-2.656v-116.53201c0-2.10266.886-3.154 2.656-3.154zm78.756 124.83201c-11.731 0-21.857-2.49-30.378-7.47-8.522-5.091-15.106-12.339-19.754-21.746-4.538-9.4067-6.806-20.584-6.806-33.532 0-13.1693 2.324-24.5127 6.972-34.03 4.758-9.5173 11.398-16.8213 19.92-21.91201 8.521-5.20133 18.536-7.801996 30.046-7.801996 11.509 0 21.469 2.600666 29.88 7.801996 8.521 5.09071 15.106 12.39471 19.754 21.91201 4.648 9.4067 6.972 20.6947 6.972 33.864 0 12.948-2.324 24.1253-6.972 33.532-4.538 9.407-11.067 16.655-19.588 21.746-8.522 5.091-18.537 7.636-30.046 7.636zm0-20.418c9.074 0 15.714-3.265 19.92-9.794 4.205-6.64 6.308-17.43 6.308-32.37 0-15.272-2.158-26.3387-6.474-33.2-4.206-6.972-10.79-10.458-19.754-10.458-9.075 0-15.77 3.486-20.086 10.458s-6.474 18.0387-6.474 33.2c0 14.8293 2.102 25.564 6.308 32.204 4.316 6.64 11.066 9.96 20.252 9.96zm176.36-104.41401c1.439 0 2.158.83 2.158 2.49v118.02601c0 .775-.276 1.439-.83 1.992-.553.443-1.328.664-2.324.664h-16.766c-.885 0-1.604-.111-2.158-.332-.553-.221-1.217-.775-1.992-1.66l-52.954-74.368c-.442-.5533-.885-.7747-1.328-.664-.332.1107-.498.4427-.498.996v73.04c.111 1.992-.996 2.988-3.32 2.988h-17.264c-2.213 0-3.32-.941-3.32-2.822v-117.19601c0-2.10266.996-3.154 2.988-3.154h20.086c1.218 0 2.103.166 2.656.49801.664.33199 1.384.99599 2.158 1.99199l48.804 69.55401c.664.8853 1.218 1.2727 1.66 1.162.554-.1107.83-.664.83-1.66v-68.55801c0-1.992.996-2.988 2.988-2.988z" fill="#f3f4f9"/></svg>