<svg id="Layer_1" data-name="Layer 1" xmlns="http://www.w3.org/2000/svg" viewBox="0 0 50 50"><title>Artboard 2 copy 14</title><path d="M43.6,23a2.1,2.1,0,0,0-2.3,2.3V38.9H9.5V25.3A2.1,2.1,0,0,0,7.3,23,2.1,2.1,0,0,0,5,25.3V41.2a2.1,2.1,0,0,0,2.3,2.3H43.6a2.1,2.1,0,0,0,2.3-2.3V25.3A2.1,2.1,0,0,0,43.6,23" fill="#0777bc"/><path d="M25.5,7.1a2.1,2.1,0,0,0-2.3,2.3V23.9l-2.5-2.5a2.3,2.3,0,1,0-3.2,3.2L23.9,31a2.5,2.5,0,0,0,1.6.7A2.1,2.1,0,0,0,27,31l6.4-6.4a2.3,2.3,0,1,0-3.2-3.2l-2.5,2.7V9.4a2.4,2.4,0,0,0-2.3-2.3" fill="#0777bc"/></svg>