<svg id="Layer_1" data-name="Layer 1" xmlns="http://www.w3.org/2000/svg" viewBox="0 0 50 50"><title>Artboard 2 copy 17</title><path d="M18.2,13.3a3.4,3.4,0,0,1-1.1,2.6,4,4,0,0,1-2.9,1h0a3.8,3.8,0,0,1-2.8-1,3.5,3.5,0,0,1-1.1-2.6,3.4,3.4,0,0,1,1.1-2.6,4,4,0,0,1,2.9-1,3.9,3.9,0,0,1,2.8,1A3.5,3.5,0,0,1,18.2,13.3Zm-.4,6.5v21h-7v-21Zm25.2,9v12H36V29.6a6.1,6.1,0,0,0-.9-3.5,3,3,0,0,0-2.7-1.3,3.4,3.4,0,0,0-2.2.7,4.5,4.5,0,0,0-1.3,1.8,5.1,5.1,0,0,0-.2,1.7V40.8h-7q0-8.5,0-13.7t0-6.3v-1h7v3.1h0l.9-1.2,1.2-1.1a5.5,5.5,0,0,1,1.8-.9,8.4,8.4,0,0,1,2.4-.3,7.5,7.5,0,0,1,5.8,2.4Q42.9,24.1,42.9,28.8Z" fill="#ababab"/></svg>