<svg id="Layer_1" data-name="Layer 1" xmlns="http://www.w3.org/2000/svg" viewBox="0 0 50 50"><title>Artboard 2 copy 12</title><path d="M47.9,10.5V37.4a4.2,4.2,0,0,1-4.2,4.2H6.9a4.1,4.1,0,0,1-3-1.2,4.1,4.1,0,0,1-1.2-3v-24H8.3V10.5ZM8.3,37.4V16.2H5.5V37.4a1.4,1.4,0,0,0,2.4,1A1.4,1.4,0,0,0,8.3,37.4Zm36.8,0v-24H11.1v24a4.2,4.2,0,0,1-.2,1.4H43.7a1.4,1.4,0,0,0,1.4-1.4Zm-17-21.2V30.3H14V16.2Zm0,17V36H14V33.1ZM25.3,19H16.8v8.5h8.5Zm17-2.8V19H30.9V16.2Zm0,5.7v2.8H30.9V21.8Zm0,5.7v2.8H30.9V27.5Zm0,5.7V36H30.9V33.1Z" fill="#fff"/></svg>