<svg id="Layer_1" data-name="Layer 1" xmlns="http://www.w3.org/2000/svg" viewBox="0 0 50 50"><title>Artboard 2 copy 5</title><path d="M30.8,4a7.2,7.2,0,0,0-7.2,7.2,7.1,7.1,0,0,0,.3,2l-9.7,6.7a7.2,7.2,0,1,0,0,11.2L24,37.8a7.1,7.1,0,0,0-.3,2,7.2,7.2,0,1,0,1.6-4.6l-9.2-6.4a7.1,7.1,0,0,0,0-6.8c3.4-2.1,5.8-4.3,9.2-6.4A7.2,7.2,0,1,0,30.8,4Zm0,2.9a4.3,4.3,0,1,1-4.3,4.3,4.3,4.3,0,0,1,4.3-4.3M9.8,21.2a4.3,4.3,0,1,1-4.3,4.3,4.3,4.3,0,0,1,4.3-4.3m21,14.3a4.3,4.3,0,1,1-4.3,4.3,4.3,4.3,0,0,1,4.3-4.3" fill="#eaebf1"/></svg>