<svg id="Layer_1" data-name="Layer 1" xmlns="http://www.w3.org/2000/svg" viewBox="0 0 50 50"><title>Artboard 2</title><path d="M49.3,10.3a20.4,20.4,0,0,1-4.9,5q0,.4,0,1.3a27.6,27.6,0,0,1-1.1,7.8,28.2,28.2,0,0,1-3.5,7.5,29.4,29.4,0,0,1-5.5,6.3,24.7,24.7,0,0,1-7.8,4.4,28.4,28.4,0,0,1-9.7,1.6A27,27,0,0,1,1.9,39.8H4.2a19,19,0,0,0,12.1-4.2,9.7,9.7,0,0,1-9.1-6.7l1.8.2a10,10,0,0,0,2.6-.3A9.6,9.6,0,0,1,6,25.5a9.4,9.4,0,0,1-2.2-6.2h0a9.6,9.6,0,0,0,4.4,1.2A9.7,9.7,0,0,1,5,17a9.5,9.5,0,0,1-1.2-4.6A9.5,9.5,0,0,1,5.2,7.5a27.5,27.5,0,0,0,8.9,7.2,27.1,27.1,0,0,0,11.2,3,10.8,10.8,0,0,1-.2-2.2,9.4,9.4,0,0,1,2.8-6.9,9.7,9.7,0,0,1,14,.2A19.1,19.1,0,0,0,48,6.4a9.4,9.4,0,0,1-4.3,5.4A19.3,19.3,0,0,0,49.3,10.3Z" fill="#6ca542"/></svg>