<svg id="Layer_1" data-name="Layer 1" xmlns="http://www.w3.org/2000/svg" viewBox="0 0 50 50"><title>Artboard 2 copy 22</title><path d="M41.4,31.6a36.8,36.8,0,0,1-.6,7.4,4,4,0,0,1-1.2,2.1,3.7,3.7,0,0,1-2.2,1,113.4,113.4,0,0,1-11.8.4,113.4,113.4,0,0,1-11.8-.4,3.8,3.8,0,0,1-2.2-1A3.9,3.9,0,0,1,10.5,39a36,36,0,0,1-.6-7.4,36.7,36.7,0,0,1,.6-7.4,4,4,0,0,1,1.2-2.1,3.8,3.8,0,0,1,2.2-1q3.9-.4,11.7-.4t11.8.4a4,4,0,0,1,3.4,3.1A36,36,0,0,1,41.4,31.6ZM16.6,26.3h2.3v-2H12.3v2h2.2V38.4h2.1ZM20.2,4.6h2.2L19.8,13v5.7H17.7V13a36,36,0,0,0-1.3-4.5L15,4.6h2.2l1.5,5.6Zm2.5,33.8h1.9V27.9H22.8v8q-.6.9-1.2.9t-.4-.4a5.9,5.9,0,0,1,0-.7V27.9H19.2v8.3a5.2,5.2,0,0,0,.2,1.5,1.1,1.1,0,0,0,1.2.8,3.1,3.1,0,0,0,2.2-1.3Zm5.3-26.8v3.7a4.2,4.2,0,0,1-.6,2.5,2.9,2.9,0,0,1-4.5,0,4.2,4.2,0,0,1-.6-2.5V11.6A4.1,4.1,0,0,1,23,9.1a2.9,2.9,0,0,1,4.5,0A4.1,4.1,0,0,1,28.1,11.6Zm-1.9,4.1V11.2q0-1.5-.9-1.5t-.9,1.5v4.5q0,1.5.9,1.5T26.1,15.7Zm5.7,19.6V31.1a7.5,7.5,0,0,0-.2-2.1,1.5,1.5,0,0,0-1.5-1.2,2.6,2.6,0,0,0-2,1.1V24.3H26.3V38.4h1.9v-1a2.6,2.6,0,0,0,2,1.2,1.5,1.5,0,0,0,1.5-1.2A7.8,7.8,0,0,0,31.9,35.3ZM30,30.9v4.5q0,1.4-.8,1.4a1.4,1.4,0,0,1-1-.5V30a1.4,1.4,0,0,1,1-.5Q30,29.5,30,30.9ZM35.2,8.2V18.8H33.2V17.6A3.1,3.1,0,0,1,31,18.9a1.2,1.2,0,0,1-1.3-.8,5.4,5.4,0,0,1-.2-1.6V8.2h1.9V16a5.6,5.6,0,0,0,0,.7q.1.5.4.5c.4,0,.8-.3,1.2-.9V8.2ZM39,35v-.3H37.1a10.4,10.4,0,0,1,0,1.3.8.8,0,0,1-.8.8q-1,0-1-1.5V33.5H39V31.3a4.2,4.2,0,0,0-.6-2.5,2.9,2.9,0,0,0-4.5,0,4.1,4.1,0,0,0-.6,2.5V35a4,4,0,0,0,.6,2.5,2.7,2.7,0,0,0,2.3,1.1A2.6,2.6,0,0,0,39,36.3,9.3,9.3,0,0,0,39,35ZM37.1,31v1H35.2V31q0-1.4,1-1.4T37.1,31Z" fill="#6fa9dc"/></svg>